<?xml version="1.0" encoding="UTF-8" standalone="no"?>
<!-- Created with Inkscape (http://www.inkscape.org/) -->

<svg
   xmlns:dc="http://purl.org/dc/elements/1.1/"
   xmlns:cc="http://creativecommons.org/ns#"
   xmlns:rdf="http://www.w3.org/1999/02/22-rdf-syntax-ns#"
   xmlns:svg="http://www.w3.org/2000/svg"
   xmlns="http://www.w3.org/2000/svg"
   xmlns:sodipodi="http://sodipodi.sourceforge.net/DTD/sodipodi-0.dtd"
   xmlns:inkscape="http://www.inkscape.org/namespaces/inkscape"
   width="1080"
   height="1080"
   id="svg2"
   version="1.1"
   inkscape:version="0.47 r22583"
   sodipodi:docname="BirdDog2.svg">
  <defs
     id="defs4">
    <inkscape:perspective
       sodipodi:type="inkscape:persp3d"
       inkscape:vp_x="0 : 526.18109 : 1"
       inkscape:vp_y="0 : 1000 : 0"
       inkscape:vp_z="744.09448 : 526.18109 : 1"
       inkscape:persp3d-origin="372.04724 : 350.78739 : 1"
       id="perspective10" />
    <inkscape:perspective
       id="perspective2820"
       inkscape:persp3d-origin="0.5 : 0.33333333 : 1"
       inkscape:vp_z="1 : 0.5 : 1"
       inkscape:vp_y="0 : 1000 : 0"
       inkscape:vp_x="0 : 0.5 : 1"
       sodipodi:type="inkscape:persp3d" />
    <inkscape:perspective
       id="perspective2860"
       inkscape:persp3d-origin="0.5 : 0.33333333 : 1"
       inkscape:vp_z="1 : 0.5 : 1"
       inkscape:vp_y="0 : 1000 : 0"
       inkscape:vp_x="0 : 0.5 : 1"
       sodipodi:type="inkscape:persp3d" />
    <inkscape:perspective
       id="perspective2886"
       inkscape:persp3d-origin="0.5 : 0.33333333 : 1"
       inkscape:vp_z="1 : 0.5 : 1"
       inkscape:vp_y="0 : 1000 : 0"
       inkscape:vp_x="0 : 0.5 : 1"
       sodipodi:type="inkscape:persp3d" />
    <inkscape:perspective
       id="perspective2904"
       inkscape:persp3d-origin="0.5 : 0.33333333 : 1"
       inkscape:vp_z="1 : 0.5 : 1"
       inkscape:vp_y="0 : 1000 : 0"
       inkscape:vp_x="0 : 0.5 : 1"
       sodipodi:type="inkscape:persp3d" />
    <inkscape:perspective
       id="perspective2920"
       inkscape:persp3d-origin="0.5 : 0.33333333 : 1"
       inkscape:vp_z="1 : 0.5 : 1"
       inkscape:vp_y="0 : 1000 : 0"
       inkscape:vp_x="0 : 0.5 : 1"
       sodipodi:type="inkscape:persp3d" />
    <inkscape:perspective
       id="perspective2942"
       inkscape:persp3d-origin="0.5 : 0.33333333 : 1"
       inkscape:vp_z="1 : 0.5 : 1"
       inkscape:vp_y="0 : 1000 : 0"
       inkscape:vp_x="0 : 0.5 : 1"
       sodipodi:type="inkscape:persp3d" />
    <inkscape:perspective
       id="perspective2956"
       inkscape:persp3d-origin="0.5 : 0.33333333 : 1"
       inkscape:vp_z="1 : 0.5 : 1"
       inkscape:vp_y="0 : 1000 : 0"
       inkscape:vp_x="0 : 0.5 : 1"
       sodipodi:type="inkscape:persp3d" />
    <inkscape:perspective
       id="perspective3008"
       inkscape:persp3d-origin="0.5 : 0.33333333 : 1"
       inkscape:vp_z="1 : 0.5 : 1"
       inkscape:vp_y="0 : 1000 : 0"
       inkscape:vp_x="0 : 0.5 : 1"
       sodipodi:type="inkscape:persp3d" />
    <inkscape:perspective
       id="perspective3030"
       inkscape:persp3d-origin="0.5 : 0.33333333 : 1"
       inkscape:vp_z="1 : 0.5 : 1"
       inkscape:vp_y="0 : 1000 : 0"
       inkscape:vp_x="0 : 0.5 : 1"
       sodipodi:type="inkscape:persp3d" />
    <inkscape:perspective
       id="perspective3184"
       inkscape:persp3d-origin="0.5 : 0.33333333 : 1"
       inkscape:vp_z="1 : 0.5 : 1"
       inkscape:vp_y="0 : 1000 : 0"
       inkscape:vp_x="0 : 0.5 : 1"
       sodipodi:type="inkscape:persp3d" />
  </defs>
  <sodipodi:namedview
     id="base"
     pagecolor="#ffffff"
     bordercolor="#666666"
     borderopacity="1.0"
     inkscape:pageopacity="0.0"
     inkscape:pageshadow="2"
     inkscape:zoom="0.11342593"
     inkscape:cx="-2197.754"
     inkscape:cy="1431.828"
     inkscape:document-units="in"
     inkscape:current-layer="layer1"
     showgrid="false"
     units="in"
     inkscape:showpageshadow="false"
     borderlayer="false"
     inkscape:window-width="1280"
     inkscape:window-height="747"
     inkscape:window-x="-4"
     inkscape:window-y="-4"
     inkscape:window-maximized="1" />
  <metadata
     id="metadata7">
    <rdf:RDF>
      <cc:Work
         rdf:about="">
        <dc:format>image/svg+xml</dc:format>
        <dc:type
           rdf:resource="http://purl.org/dc/dcmitype/StillImage" />
        <dc:title></dc:title>
      </cc:Work>
    </rdf:RDF>
  </metadata>
  <g
     inkscape:label="Layer 1"
     inkscape:groupmode="layer"
     id="layer1"
     transform="translate(0,27.64025)">
    <path
       id="path3190"
       style="fill:#000000"
       d="m 337.90542,604.41219 c -30.86986,-30.86978 -40.73967,-43.23985 -40.73967,-51.05994 0,-5.67619 7.11799,-22.66623 15.81768,-37.75567 18.22038,-31.60285 20.49697,-53.24245 8.98139,-85.36926 l -6.87541,-19.18122 11.03078,-9.48825 c 11.07206,-9.5238 20.49309,-11.49099 46.1745,-9.64159 16.75076,1.20627 42.99063,13.98795 46.27219,22.53961 3.20151,8.34281 -13.46568,41.32809 -35.98012,71.20698 -17.98854,23.87245 -29.94577,52.76432 -30.00165,72.49196 -0.0478,16.89529 14.61371,35.00764 43.42509,53.64564 15.23318,9.85431 27.69666,20.2775 27.69666,23.16264 0,5.34897 -16.57246,10.18873 -34.88839,10.18873 -7.63373,0 -20.34387,-10.17042 -50.91305,-40.73963 z M 85.039381,668.91157 c -24.926484,-10.05906 -27.663424,-41.22978 -7.343311,-83.6307 7.967839,-16.62612 13.840438,-34.96777 13.840438,-43.22743 0,-16.90269 12.218012,-34.94682 45.327132,-66.94124 29.39325,-28.40353 34.58911,-39.07423 37.69098,-77.40557 3.20303,-39.58122 17.81736,-72.74598 46.91881,-106.47447 23.96875,-27.77971 27.09457,-36.48106 18.83957,-52.44439 -9.69531,-18.74865 -71.65736,-70.61854 -139.93692,-117.14444 -9.21163,-6.27683 -16.748413,-12.1383 -16.748413,-13.02547 0,-0.88717 17.349953,7.3626 38.555513,18.33282 38.63833,19.98874 75.49261,45.62937 126.77869,88.20377 l 27.44426,22.78254 25.20887,-6.6923 c 16.96107,-4.50274 41.38123,-6.7616 74.63895,-6.90414 45.58854,-0.19538 51.2025,0.61397 72.23481,10.41395 42.32338,19.72055 79.30224,22.92391 142.70156,12.36178 38.68971,-6.4456 39.95615,-6.40564 80.22023,2.53147 46.84354,10.39752 76.444,9.21818 90.07642,-3.58882 12.58646,-11.82441 35.70715,-20.16907 62.89895,-22.70141 28.07065,-2.61417 45.0131,2.87818 69.44558,22.51264 12.72136,10.22317 20.87678,13.08799 46.21258,16.23345 16.92076,2.10072 32.23101,4.72547 34.02261,5.83277 1.79167,1.1073 3.2576,10.76466 3.2576,21.46079 0,20.64468 -5.21386,26.96911 -27.68087,33.57731 -5.43732,1.59927 -14.33479,6.00215 -19.77211,9.78419 -5.64374,3.92565 -21.7643,8.05592 -37.56689,9.62506 -27.738,2.75429 -145.53627,27.58707 -164.10801,34.59524 -13.86488,5.232 -31.4331,22.87939 -29.02473,29.15552 2.16469,5.64097 50.61025,26.89018 71.2043,31.23165 6.88685,1.45182 13.51547,5.22998 14.73039,8.39588 3.13254,8.16328 -27.28631,92.43548 -36.79923,101.9484 -6.71304,6.71309 -9.43585,7.21799 -17.96584,3.33148 -14.03938,-6.39678 -12.71894,-16.75282 5.54818,-43.51409 8.58095,-12.57115 17.45453,-27.72974 19.719,-33.68576 3.73672,-9.82825 3.11703,-11.21325 -6.70438,-14.98496 -5.95188,-2.28573 -27.04812,-6.01557 -46.88039,-8.28856 -34.35631,-3.93765 -37.53012,-3.63312 -67.22494,6.44968 -54.13942,18.3829 -58.66194,21.48059 -60.07795,41.14999 -0.93204,12.94681 1.66177,22.65528 10.68526,39.99335 6.5539,12.5929 14.04353,31.58529 16.64357,42.20534 9.40386,38.41048 29.13455,64.30985 58.14793,76.32762 13.92166,5.76651 15.9239,10.07639 6.38211,13.73789 -26.97776,10.35233 -83.53905,-24.40389 -91.13262,-55.99978 -1.42791,-5.94114 -9.52136,-25.57364 -17.98556,-43.62778 -13.47772,-28.74804 -18.24668,-43.39296 -28.58591,-87.78382 -1.57687,-6.77018 -11.00143,-15.38542 -29.90242,-27.33461 -15.17986,-9.59677 -41.43884,-28.74931 -58.35324,-42.56132 -39.34443,-32.12785 -57.23069,-40.82754 -83.94018,-40.82754 l -21.03169,0 -35.11323,35.75427 c -23.8718,24.30768 -49.88732,45.38737 -81.26128,65.84381 -49.76018,32.44467 -70.83237,51.80162 -98.30918,90.3069 -29.657976,41.56202 -31.579201,52.62231 -15.15319,87.23755 9.25871,19.51122 1.1609,26.32241 -20.771809,17.47149 z" />
  </g>
</svg>
